<svg height="512pt" viewBox="0 0 512 512" width="512pt" xmlns="http://www.w3.org/2000/svg"><path d="m512 230.695312c0-44.800781-33.066406-82.257812-76.078125-89.082031-3.707031-21.507812-14.140625-41.257812-30.121094-56.625-19.277343-18.535156-44.625-28.742187-71.378906-28.742187-11.820313 0-23.589844 2.058594-34.679687 6.015625-23.324219-38.242188-65.347657-62.261719-110.746094-62.261719-71.46875 0-129.609375 58.144531-129.609375 129.613281 0 5.328125.328125 10.652344.976562 15.933594-35.730469 12.410156-60.363281 46.136719-60.363281 85.148437 0 49.734376 40.464844 90.199219 90.199219 90.199219h1.695312c-1.246093 8.191407-1.894531 16.574219-1.894531 25.105469 0 91.53125 74.46875 166 166 166s166-74.46875 166-166c0-8.53125-.648438-16.914062-1.894531-25.105469h1.695312c49.734375 0 90.199219-40.464843 90.199219-90.199219zm-321.042969 130.304688c.644531 16.789062 2.359375 33.597656 5.046875 49.589844-17.089844 4.363281-33.261718 10.554687-47.722656 18.332031-14.839844-19.234375-24.652344-42.535156-27.449219-67.921875zm65.042969-150.867188c2.808594 1.414063 12.191406 10.34375 21.285156 38.132813.988282 3.015625 1.917969 6.132813 2.808594 9.308594-7.953125.902343-16.015625 1.367187-24.09375 1.367187s-16.140625-.464844-24.097656-1.367187c.890625-3.175781 1.820312-6.292969 2.808594-9.308594 9.097656-27.789063 18.480468-36.71875 21.289062-38.132813zm0 78.808594c10.238281 0 20.476562-.667968 30.570312-1.949218 2.34375 14.039062 3.847657 28.875 4.453126 44.007812h-70.046876c.605469-15.132812 2.109376-29.96875 4.453126-44.007812 10.09375 1.28125 20.332031 1.949218 30.570312 1.949218zm35.023438 72.058594c-.605469 15.132812-2.109376 29.96875-4.453126 44.007812-10.09375-1.28125-20.332031-1.949218-30.570312-1.949218s-20.476562.667968-30.570312 1.949218c-2.34375-14.039062-3.847657-28.875-4.453126-44.007812zm-88.714844 78.914062c3.546875 13.277344 7.855468 25.429688 12.863281 35.820313-16.578125-5.226563-31.792969-13.554687-44.964844-24.292969 9.972657-4.703125 20.78125-8.570312 32.101563-11.527344zm32.40625 3.820313c-.988282-3.015625-1.921875-6.132813-2.8125-9.3125 7.957031-.898437 16.019531-1.363281 24.097656-1.363281s16.140625.464844 24.097656 1.363281c-.890625 3.179687-1.820312 6.296875-2.8125 9.3125-9.09375 27.789063-18.476562 36.71875-21.285156 38.132813-2.808594-1.414063-12.191406-10.34375-21.285156-38.132813zm74.976562-3.820313c11.320313 2.957032 22.128906 6.824219 32.101563 11.527344-13.171875 10.738282-28.386719 19.066406-44.964844 24.292969 5.007813-10.390625 9.316406-22.542969 12.863281-35.820313zm6.304688-29.324218c2.6875-15.992188 4.402344-32.800782 5.046875-49.589844h70.125c-2.796875 25.386719-12.609375 48.6875-27.449219 67.921875-14.460938-7.777344-30.632812-13.96875-47.722656-18.332031zm5.046875-79.589844c-.644531-16.789062-2.359375-33.597656-5.046875-49.589844 17.089844-4.363281 33.261718-10.554687 47.71875-18.332031 14.84375 19.234375 24.65625 42.535156 27.453125 67.921875zm-11.351563-78.914062c-3.546875-13.277344-7.855468-25.429688-12.863281-35.820313 16.578125 5.226563 31.792969 13.554687 44.964844 24.292969-9.972657 4.703125-20.78125 8.570312-32.101563 11.527344zm-107.382812 0c-11.320313-2.957032-22.128906-6.824219-32.101563-11.527344 13.171875-10.738282 28.386719-19.066406 44.964844-24.292969-5.007813 10.390625-9.316406 22.542969-12.863281 35.820313zm-54.027344 10.992187c14.460938 7.777344 30.632812 13.96875 47.722656 18.332031-2.6875 15.992188-4.402344 32.800782-5.046875 49.589844h-70.125c2.796875-25.386719 12.609375-48.6875 27.449219-67.921875zm107.71875-83.078125c-72.222656 0-133.808594 46.367188-156.585938 110.894531h-9.214843c-33.191407 0-60.199219-27.003906-60.199219-60.199219 0-29.476562 21.0625-54.429687 50.082031-59.335937l15.851563-2.679687-3.769532-15.625c-1.84375-7.648438-2.777343-15.535157-2.777343-23.441407 0-54.925781 44.683593-99.613281 99.609375-99.613281 38.699218 0 74.207031 22.710938 90.464844 57.855469l6.660156 14.410156 14.011718-7.46875c10.636719-5.675781 22.175782-8.550781 34.292969-8.550781 39.25 0 71.289063 30.699218 72.9375 69.890625l.597657 14.269531 14.28125.101562c32.949218.234376 59.757812 27.234376 59.757812 60.1875 0 33.195313-27.003906 60.199219-60.199219 60.199219h-9.214843c-22.777344-64.527343-84.363282-110.894531-156.585938-110.894531zm0 0"/></svg>