<svg xmlns="http://www.w3.org/2000/svg" height="512pt" version="1.1" viewBox="0 -51 512 512" width="512pt">
<g id="surface1">
<path d="M 0 0 L 0 410 L 512 410 L 512 0 Z M 482 380 L 30 380 L 30 30 L 482 30 Z M 482 380 " style=" stroke:none;fill-rule:nonzero;fill:rgb(0%,0%,0%);fill-opacity:1;" />
<path d="M 141.40625 230.25 L 111 230.25 L 111 320.25 L 201 320.25 L 201 230.25 L 171.542969 230.25 C 174.582031 203.445312 190.320312 179.570312 213.503906 166.136719 C 222.390625 180.46875 238.226562 189.75 256 189.75 C 273.773438 189.75 289.609375 180.46875 298.496094 166.140625 C 321.613281 179.535156 337.445312 202.976562 340.460938 230.25 L 311 230.25 L 311 320.25 L 401 320.25 L 401 230.25 L 370.609375 230.25 C 368.191406 200.503906 354.566406 173.976562 333.441406 154.75 L 426 154.75 L 426 124.75 L 303.699219 124.75 C 297.3125 104.484375 278.347656 89.75 256 89.75 C 233.652344 89.75 214.6875 104.484375 208.300781 124.75 L 86 124.75 L 86 154.75 L 178.613281 154.75 C 157.46875 174.085938 143.851562 200.996094 141.40625 230.25 Z M 171 290.25 L 141 290.25 L 141 260.25 L 171 260.25 Z M 371 290.25 L 341 290.25 L 341 260.25 L 371 260.25 Z M 256 119.75 C 267.027344 119.75 276 128.722656 276 139.75 C 276 140.9375 275.898438 142.109375 275.695312 143.25 C 274.015625 152.8125 265.730469 159.75 256 159.75 C 246.269531 159.75 237.984375 152.8125 236.300781 143.238281 C 236.101562 142.109375 236 140.933594 236 139.75 C 236 128.722656 244.972656 119.75 256 119.75 Z M 256 119.75 " style=" stroke:none;fill-rule:nonzero;fill:rgb(0%,0%,0%);fill-opacity:1;" />
</g>
</svg>