<svg height="512pt" viewBox="-26 0 512 512" width="512pt" xmlns="http://www.w3.org/2000/svg"><path d="m229.777344 132.261719c-88.152344 0-159.871094 71.71875-159.871094 159.871093 0 88.148438 71.71875 159.867188 159.871094 159.867188 88.148437 0 159.867187-71.71875 159.867187-159.867188 0-88.152343-71.71875-159.871093-159.867187-159.871093zm128.996094 144.871093h-86.550782c-4.53125-12.777343-14.667968-22.917968-27.445312-27.445312v-86.554688c59.644531 6.894532 107.105468 54.351563 113.996094 114zm-128.996094-.027343c8.28125 0 15.023437 6.742187 15.023437 15.027343 0 8.28125-6.742187 15.023438-15.023437 15.023438-8.285156 0-15.023438-6.742188-15.023438-15.023438 0-8.285156 6.738282-15.027343 15.023438-15.027343zm0 144.894531c-71.609375 0-129.871094-58.257812-129.871094-129.867188 0-66.535156 50.300781-121.539062 114.871094-129v86.554688c-17.472656 6.191406-30.023438 22.875-30.023438 42.445312 0 24.824219 20.195313 45.023438 45.023438 45.023438 19.566406 0 36.25-12.554688 42.445312-30.023438h86.550782c-7.460938 64.566407-62.460938 114.867188-128.996094 114.867188zm0 0"/><path d="m417.101562 126.019531 21.238282 21.238281 21.210937-21.210937-63.691406-63.691406-21.210937 21.210937 21.238281 21.242188-21.609375 21.609375c-27.328125-23.898438-59.640625-40.390625-94.472656-48.457031v-47.960938h30.035156v-30h-160.128906v30h30.035156v47.960938c-34.832032 8.066406-67.144532 24.558593-94.472656 48.457031l-21.609376-21.609375 21.238282-21.238282-21.210938-21.214843-63.691406 63.691406 21.214844 21.210937 21.238281-21.238281 21.609375 21.609375c-35.023438 40.046875-54.15625 90.800782-54.15625 144.503906 0 58.726563 22.871094 113.941407 64.398438 155.46875 41.53125 41.527344 96.742187 64.398438 155.472656 64.398438 58.726562 0 113.941406-22.871094 155.46875-64.398438 41.527344-41.527343 64.398437-96.742187 64.398437-155.46875 0-53.703124-19.132812-104.457031-54.15625-144.503906zm-207.355468-96.019531h40.058594v43.171875c-6.621094-.59375-13.300782-.910156-20.027344-.910156-6.726563 0-13.40625.316406-20.027344.910156v-43.171875zm20.03125 452c-104.695313 0-189.871094-85.175781-189.871094-189.867188 0-104.695312 85.175781-189.871093 189.871094-189.871093 104.691406 0 189.867187 85.175781 189.867187 189.871093 0 104.691407-85.175781 189.867188-189.867187 189.867188zm0 0"/></svg>