<svg height="512pt" viewBox="0 -30 512 511" width="512pt" xmlns="http://www.w3.org/2000/svg"><path d="m213.988281 30.523438-20.015625-30.023438h-193.972656v451.953125h512v-421.929687zm8 274.503906c-31.019531-13.589844-51.0625-44.195313-51.0625-77.964844 0-18.429688 5.824219-35.976562 16.839844-50.746094 6.339844-8.496094 14.269531-15.761718 23.207031-21.371094v77.105469h90.050782v-77.105469c8.9375 5.609376 16.867187 12.875 23.207031 21.371094 11.015625 14.769532 16.839843 32.316406 16.839843 50.746094 0 33.769531-20.042968 64.371094-51.0625 77.964844l-8.976562 3.9375v113.488281h-50.066406v-113.488281zm260.011719 117.425781h-170.96875v-94.351563c36.777344-20.0625 60.039062-58.707031 60.039062-101.039062 0-24.945312-7.878906-48.695312-22.789062-68.683594-14.398438-19.300781-34.910156-33.894531-57.75-41.09375l-19.507812-6.148437v90.917969h-30.046876v-90.917969l-19.507812 6.148437c-22.839844 7.199219-43.351562 21.792969-57.746094 41.09375-14.914062 19.988282-22.792968 43.738282-22.792968 68.683594 0 42.332031 23.261718 80.976562 60.039062 101.039062v94.351563h-170.96875v-391.953125h147.914062l20.019532 30.023438h284.066406zm0 0"/></svg>